<svg width="100" height="100" viewBox="0 0 100 100" fill="none" xmlns="http://www.w3.org/2000/svg">
<g clip-path="url(#clip0)">
<rect width="100" height="100" fill="white"/>
<path fill-rule="evenodd" clip-rule="evenodd" d="M50 92.1875C73.2995 92.1875 92.1875 73.2995 92.1875 50C92.1875 26.7005 73.2995 7.8125 50 7.8125C26.7005 7.8125 7.8125 26.7005 7.8125 50C7.8125 73.2995 26.7005 92.1875 50 92.1875ZM50 100C77.6142 100 100 77.6142 100 50C100 22.3858 77.6142 0 50 0C22.3858 0 0 22.3858 0 50C0 77.6142 22.3858 100 50 100Z" fill="#2B86D1" fill-opacity="0.5"/>
<path fill-rule="evenodd" clip-rule="evenodd" d="M50 75.7812C64.2386 75.7812 75.7812 64.2386 75.7812 50C75.7812 35.7614 64.2386 24.2188 50 24.2188C35.7614 24.2188 24.2188 35.7614 24.2188 50C24.2188 64.2386 35.7614 75.7812 50 75.7812ZM50 83.5938C68.5533 83.5938 83.5938 68.5533 83.5938 50C83.5938 31.4467 68.5533 16.4062 50 16.4062C31.4467 16.4062 16.4062 31.4467 16.4062 50C16.4062 68.5533 31.4467 83.5938 50 83.5938Z" fill="#2B86D1" fill-opacity="0.5"/>
<path fill-rule="evenodd" clip-rule="evenodd" d="M50 59.375C55.1777 59.375 59.375 55.1777 59.375 50C59.375 44.8223 55.1777 40.625 50 40.625C44.8223 40.625 40.625 44.8223 40.625 50C40.625 55.1777 44.8223 59.375 50 59.375ZM50 67.1875C59.4924 67.1875 67.1875 59.4924 67.1875 50C67.1875 40.5076 59.4924 32.8125 50 32.8125C40.5076 32.8125 32.8125 40.5076 32.8125 50C32.8125 59.4924 40.5076 67.1875 50 67.1875Z" fill="#2B86D1" fill-opacity="0.5"/>
</g>
<defs>
<clipPath id="clip0">
<rect width="100" height="100" fill="white"/>
</clipPath>
</defs>
</svg>
