<svg width="100" height="100" viewBox="0 0 100 100" fill="none" xmlns="http://www.w3.org/2000/svg">
<g clip-path="url(#clip0)">
<rect width="100" height="100" fill="white"/>
<path fill-rule="evenodd" clip-rule="evenodd" d="M15.625 0C6.99556 0 0 6.99556 0 15.625V84.375C0 93.0047 6.99556 100 15.625 100H84.375C93.0047 100 100 93.0047 100 84.375V15.625C100 6.99556 93.0047 0 84.375 0H15.625ZM60.1052 45.4025C60.6441 45.9428 61.278 46.2129 62.0071 46.2129H80.4078C81.1375 46.2129 81.7555 45.9428 82.2625 45.4025C82.8016 44.8623 83.0711 44.2267 83.0711 43.4958V42.3994C83.0711 41.6684 82.8016 41.0328 82.2625 40.4926C81.7555 39.9523 81.1375 39.6822 80.4078 39.6822H69.9952C69.9634 39.6822 69.9476 39.6663 69.9476 39.6345C69.9476 39.6027 69.9634 39.5709 69.9952 39.5392C75.0986 35.2172 78.5219 31.8009 80.2656 29.2902C82.0406 26.7479 82.9281 24.0784 82.9281 21.2818C82.9281 18.0402 81.882 15.5137 79.7898 13.7023C77.7295 11.8591 74.7816 10.9375 70.9461 10.9375C68.2834 10.9375 65.5098 11.3188 62.6252 12.0816C61.8328 12.304 61.1988 12.7489 60.7234 13.4163C60.2479 14.0519 60.0102 14.7828 60.0102 15.6091V17.6113C60.0102 18.2468 60.2795 18.7394 60.8184 19.089C61.3573 19.4386 61.9279 19.5021 62.5302 19.2797C65.383 18.1991 67.7921 17.6589 69.7574 17.6589C72.9906 17.6589 74.6073 19.1208 74.6073 22.0445C74.6073 24.142 73.7355 26.2871 71.9921 28.4798C70.2804 30.6727 66.7619 33.8665 61.4366 38.0614C60.0102 39.1738 59.2969 40.6197 59.2969 42.3994V43.4958C59.2969 44.2267 59.5663 44.8623 60.1052 45.4025ZM17.5052 25.5244C18.0123 25.7786 18.4877 25.7309 18.9316 25.3814L25.8735 20.3284H25.9686V43.4958C25.9686 44.2267 26.238 44.8623 26.7769 45.4026C27.3158 45.9428 27.9498 46.213 28.6788 46.213H31.6743C32.4034 46.213 33.0373 45.9428 33.5763 45.4026C34.1151 44.8623 34.3845 44.2267 34.3845 43.4958V14.1314C34.3845 13.4005 34.1151 12.7648 33.5763 12.2246C33.0373 11.6844 32.4034 11.4142 31.6743 11.4142H28.6788C26.8403 11.4142 25.2078 11.9386 23.7814 12.9873L18.9791 16.5148C17.5209 17.5636 16.7919 18.9937 16.7919 20.8051V24.285C16.7919 24.857 17.0296 25.2702 17.5052 25.5244ZM19.1165 60.3178C18.3874 60.3178 17.7534 60.0477 17.2145 59.5074C16.6757 58.9672 16.4062 58.3316 16.4062 57.6006V56.5042C16.4062 55.7733 16.6757 55.1377 17.2145 54.5975C17.7534 54.0572 18.3874 53.7871 19.1165 53.7871H36.8517C37.5808 53.7871 38.2148 54.0572 38.7537 54.5975C39.2925 55.1377 39.562 55.7733 39.562 56.5042V57.6006C39.562 59.4121 38.8646 60.8898 37.4698 62.0339L30.2902 67.9926V68.0402C30.2902 68.072 30.306 68.088 30.3377 68.088H30.9083C33.666 68.088 35.8691 68.946 37.5174 70.6621C39.1974 72.3782 40.0374 74.6981 40.0374 77.6218C40.0374 81.3086 38.9121 84.1367 36.6616 86.107C34.4109 88.0773 31.1777 89.0625 26.9618 89.0625C24.4259 89.0625 21.8584 88.7609 19.2591 88.157C18.4984 87.9664 17.8644 87.5531 17.3572 86.9172C16.8817 86.25 16.644 85.5031 16.644 84.6766V83.0562C16.644 82.4203 16.8976 81.9281 17.4048 81.5781C17.9436 81.1969 18.5301 81.1016 19.164 81.2922C21.8901 82.182 24.2675 82.6273 26.2962 82.6273C28.1347 82.6273 29.5611 82.1984 30.5755 81.3398C31.5898 80.482 32.097 79.2906 32.097 77.7648C32.097 76.2077 31.5105 75.1112 30.3377 74.4756C29.1648 73.8401 26.9777 73.5063 23.7762 73.4746C23.0471 73.4746 22.4131 73.2203 21.8742 72.7119C21.3354 72.1716 21.0659 71.536 21.0659 70.8051V70.7098C21.0659 68.9301 21.7474 67.4523 23.1105 66.2765L29.8623 60.4131V60.3655C29.8623 60.3337 29.8464 60.3178 29.8147 60.3178H19.1165ZM60.0102 60.5084C60.549 60.8898 61.1354 61.001 61.7694 60.8421C64.7491 60.0795 67.4909 59.698 69.9952 59.698C73.4185 59.698 75.1302 60.7468 75.1302 62.8443C75.1302 63.448 74.9401 64.036 74.5597 64.608C74.1793 65.1801 73.7673 65.6568 73.3234 66.0381C72.9114 66.4195 72.2774 66.928 71.4216 67.5635C70.3438 68.358 69.5197 69.0095 68.9491 69.518C68.3785 69.9947 67.7287 70.7415 66.9996 71.7584C66.2705 72.7436 65.7634 73.7765 65.4781 74.857C65.2879 75.5561 65.4464 76.1759 65.9536 76.7161C66.4608 77.2563 67.0947 77.5265 67.8555 77.5265H69.9C71.263 77.5265 72.3884 76.6684 73.2759 74.9523C73.5612 74.412 73.9733 73.8718 74.5122 73.3316C75.051 72.7595 75.5106 72.3464 75.891 72.0921C76.2714 71.8061 76.8737 71.3613 77.6978 70.7574C78.6805 70.09 79.4094 69.5656 79.8852 69.1843C80.3922 68.7712 80.9789 68.1833 81.6445 67.4205C82.3414 66.6578 82.8328 65.8156 83.118 64.8941C83.4352 63.9724 83.5938 62.9238 83.5938 61.7479C83.5938 59.2373 82.5 57.2034 80.3133 55.6462C78.1258 54.089 75.0827 53.3104 71.1838 53.3104C68.2041 53.3104 65.0819 53.6123 61.817 54.2161C61.0562 54.3432 60.4222 54.7245 59.915 55.3602C59.4395 55.964 59.2018 56.6631 59.2018 57.4576V58.8877C59.2018 59.5551 59.4713 60.0953 60.0102 60.5084ZM70.2804 81.4352H67.4276C66.6985 81.4352 66.0645 81.7055 65.5256 82.2461C65.0184 82.7859 64.7648 83.4219 64.7648 84.1523V85.8688C64.7648 86.5992 65.0184 87.2352 65.5256 87.7758C66.0645 88.3156 66.6985 88.5859 67.4276 88.5859H70.2804C71.0095 88.5859 71.6434 88.3156 72.1823 87.7758C72.7212 87.2352 72.9906 86.5992 72.9906 85.8688V84.1523C72.9906 83.4219 72.7212 82.7859 72.1823 82.2461C71.6434 81.7055 71.0095 81.4352 70.2804 81.4352Z" fill="#2B86D1" fill-opacity="0.5"/>
</g>
<defs>
<clipPath id="clip0">
<rect width="100" height="100" fill="white"/>
</clipPath>
</defs>
</svg>
