<svg width="100" height="100" viewBox="0 0 100 100" fill="none" xmlns="http://www.w3.org/2000/svg">
<rect width="100" height="100" fill="#2B87D1"/>
<path d="M50 1.5625C23.2422 1.5625 1.5625 23.2422 1.5625 50C1.5625 76.7578 23.2422 98.4375 50 98.4375C76.7578 98.4375 98.4375 76.7578 98.4375 50C98.4375 23.2422 76.7578 1.5625 50 1.5625ZM61.1523 69.9414L43.9258 57.4219C43.3203 56.9727 42.9688 56.2695 42.9688 55.5273V22.6562C42.9688 21.3672 44.0234 20.3125 45.3125 20.3125H54.6875C55.9766 20.3125 57.0312 21.3672 57.0312 22.6562V49.5508L69.4336 58.5742C70.4883 59.3359 70.7031 60.8008 69.9414 61.8555L64.4336 69.4336C63.6719 70.4688 62.207 70.7031 61.1523 69.9414Z" fill="white"/>
</svg>
