<svg width="100" height="100" viewBox="0 0 100 100" fill="none" xmlns="http://www.w3.org/2000/svg">
<rect width="100" height="100" fill="#2B86D1" fill-opacity="0.5"/>
<g clip-path="url(#clip0)">
<path d="M85.3555 14.6445C75.9115 5.20098 63.3555 0 50 0C36.6445 0 24.0885 5.20098 14.6445 14.6445C5.20098 24.0885 0 36.6445 0 50C0 63.3555 5.20098 75.9115 14.6445 85.3555C24.0885 94.799 36.6445 100 50 100C63.3555 100 75.9115 94.799 85.3555 85.3555C94.799 75.9115 100 63.3555 100 50C100 36.6445 94.799 24.0885 85.3555 14.6445V14.6445ZM81.2121 81.2121C72.875 89.5492 61.7904 94.1406 50 94.1406C38.2096 94.1406 27.125 89.5492 18.7879 81.2121C10.4508 72.875 5.85938 61.7904 5.85938 50C5.85938 38.2096 10.4508 27.125 18.7879 18.7879C27.125 10.4508 38.2096 5.85938 50 5.85938C61.7904 5.85938 72.875 10.4508 81.2121 18.7879C89.5492 27.125 94.1406 38.2096 94.1406 50C94.1406 61.7904 89.5492 72.875 81.2121 81.2121Z" fill="white"/>
<path d="M50 35.1562C41.815 35.1562 35.1562 41.8152 35.1562 50C35.1562 58.1848 41.815 64.8438 50 64.8438C58.1848 64.8438 64.8438 58.1848 64.8438 50C64.8438 41.8152 58.1848 35.1562 50 35.1562ZM50 58.9844C45.0461 58.9844 41.0156 54.9539 41.0156 50C41.0156 45.0461 45.0461 41.0156 50 41.0156C54.9539 41.0156 58.9844 45.0461 58.9844 50C58.9844 54.9539 54.9539 58.9844 50 58.9844Z" fill="white"/>
<path d="M88.2883 47.0703H82.2881C80.8891 31.5261 68.4738 19.1109 52.9297 17.7119V11.7117H47.0703V17.7119C31.526 19.1109 19.1109 31.5261 17.7119 47.0703H11.7117V52.9296H17.7119C19.1109 68.4738 31.526 80.889 47.0703 82.288V88.2882H52.9297V82.288C68.4738 80.889 80.8891 68.4738 82.2881 52.9296H88.2883V47.0703ZM52.9297 76.4001V70.696H47.0703V76.4001C34.7596 75.0431 24.9568 65.2402 23.5998 52.9296H29.3039V47.0703H23.5998C24.9568 34.7597 34.7596 24.9568 47.0703 23.5998V29.3039H52.9297V23.5998C65.2402 24.9568 75.0432 34.7597 76.4002 47.0703H70.6961V52.9296H76.4002C75.0432 65.2402 65.2402 75.0431 52.9297 76.4001Z" fill="white"/>
</g>
<defs>
<clipPath id="clip0">
<rect width="100" height="100" fill="white"/>
</clipPath>
</defs>
</svg>
