<svg width="50" height="64" viewBox="0 0 50 64" fill="none" xmlns="http://www.w3.org/2000/svg">
<rect width="50" height="64" fill="white"/>
<g clip-path="url(#clip0)">
<path d="M0.359763 29.808L16.42 1.39574C16.9074 0.533275 17.8214 0 18.8121 0H47.2473C49.4559 0 50.762 2.47364 49.5167 4.29766L35.6005 24.6785C34.355 26.5025 35.6613 28.9762 37.8699 28.9762H41.1059C43.6813 28.9762 44.8417 32.2008 42.8569 33.842L7.17 63.3515C4.92643 65.2065 1.71669 62.7565 2.91422 60.103L12.9854 37.7868C13.8062 35.968 12.4761 33.9083 10.4807 33.9083H2.75195C0.647694 33.9083 -0.675731 31.6399 0.359763 29.808Z" fill="#2B86D1" fill-opacity="0.5"/>
</g>
<defs>
<clipPath id="clip0">
<rect width="50" height="64" fill="white"/>
</clipPath>
</defs>
</svg>
