<svg width="76" height="100" viewBox="0 0 76 100" fill="none" xmlns="http://www.w3.org/2000/svg">
<g clip-path="url(#clip0)">
<rect width="76" height="100" fill="white"/>
<g clip-path="url(#clip1)">
<path fill-rule="evenodd" clip-rule="evenodd" d="M76.1679 3.81679C76.1679 1.70883 74.4591 0 72.3511 0H3.64883C1.54087 0 -0.167969 1.70884 -0.167969 3.81679V96.1832C-0.167969 98.2908 1.54087 100 3.64883 100H73.1145C74.8008 100 76.1679 98.6328 76.1679 96.9466C76.1679 95.2603 74.8008 93.8931 73.1145 93.8931H10.9371C8.82921 93.8931 7.12038 92.184 7.12038 90.0763V80.916C7.12038 78.8084 8.82921 77.0992 10.9371 77.0992H72.3511C74.4591 77.0992 76.1679 75.3904 76.1679 73.2824V3.81679ZM57.1784 61.0687C59.5302 61.0687 61.3224 58.9623 60.9459 56.6408L54.8789 19.2363C54.5792 17.3883 52.9834 16.0305 51.1113 16.0305H46.8026C45.5512 16.0305 44.3792 16.644 43.6662 17.6724L17.7275 55.0769C15.9723 57.6081 17.7838 61.0687 20.864 61.0687H21.7991C23.0754 61.0687 24.2672 60.4308 24.9751 59.3689L30.2258 51.4913C30.9337 50.4293 32.1255 49.7914 33.4018 49.7914H47.5972C49.5129 49.7914 51.1319 51.2115 51.3815 53.1108L51.9911 57.7493C52.2407 59.6486 53.8597 61.0687 55.7754 61.0687H57.1784ZM42.0014 44.6138C38.9495 44.6138 37.132 41.2095 38.8298 38.6736L42.0892 33.8053C44.0533 30.8716 48.6054 31.9481 49.0475 35.4508L49.662 40.3191C49.9497 42.5986 48.1729 44.6138 45.8752 44.6138H42.0014Z" fill="#2B86D1" fill-opacity="0.5"/>
<path d="M68.5343 82.4427H15.0992C13.4128 82.4427 12.0458 83.8098 12.0458 85.4962C12.0458 87.1825 13.4128 88.5496 15.0992 88.5496H68.5343C70.2207 88.5496 71.5878 87.1825 71.5878 85.4962C71.5878 83.8098 70.2207 82.4427 68.5343 82.4427Z" fill="#2B86D1" fill-opacity="0.5"/>
</g>
</g>
<defs>
<clipPath id="clip0">
<rect width="76" height="100" fill="white"/>
</clipPath>
<clipPath id="clip1">
<rect width="100" height="100" fill="white" transform="translate(-12)"/>
</clipPath>
</defs>
</svg>
