<svg width="100" height="28" viewBox="0 0 100 28" fill="none" xmlns="http://www.w3.org/2000/svg">
<g clip-path="url(#clip0)">
<rect width="100" height="28" fill="#20B2AA"/>
<path d="M64.5161 14.0625C64.5161 21.8359 58.0242 28.125 50 28.125C41.9758 28.125 35.4839 21.8359 35.4839 14.0625C35.4839 6.28906 41.9758 0 50 0C58.0242 0 64.5161 6.28906 64.5161 14.0625ZM85.4839 0C77.4597 0 70.9677 6.28906 70.9677 14.0625C70.9677 21.8359 77.4597 28.125 85.4839 28.125C93.5081 28.125 100 21.8359 100 14.0625C100 6.28906 93.5081 0 85.4839 0ZM14.5161 0C6.49194 0 0 6.28906 0 14.0625C0 21.8359 6.49194 28.125 14.5161 28.125C22.5403 28.125 29.0323 21.8359 29.0323 14.0625C29.0323 6.28906 22.5403 0 14.5161 0Z" fill="white"/>
</g>
<defs>
<clipPath id="clip0">
<rect width="100" height="28" fill="white"/>
</clipPath>
</defs>
</svg>
