<svg width="100" height="100" viewBox="0 0 100 100" fill="none" xmlns="http://www.w3.org/2000/svg">
<g clip-path="url(#clip0)">
<rect width="100" height="100" fill="white"/>
<path d="M91.8125 0H62.125C57.8103 0 54.3125 3.49778 54.3125 7.8125V37.5C54.3125 41.8147 57.8103 45.3125 62.125 45.3125H91.8125C96.1272 45.3125 99.625 41.8147 99.625 37.5V7.8125C99.625 3.49778 96.1272 0 91.8125 0Z" fill="#2B86D1" fill-opacity="0.5"/>
<path d="M37.5 0H7.8125C3.49778 0 0 3.49778 0 7.8125V37.5C0 41.8147 3.49778 45.3125 7.8125 45.3125H37.5C41.8147 45.3125 45.3125 41.8147 45.3125 37.5V7.8125C45.3125 3.49778 41.8147 0 37.5 0Z" fill="#2B86D1" fill-opacity="0.5"/>
<path d="M37.5 54.3125H7.8125C3.49778 54.3125 0 57.8103 0 62.125V91.8125C0 96.1272 3.49778 99.625 7.8125 99.625H37.5C41.8147 99.625 45.3125 96.1272 45.3125 91.8125V62.125C45.3125 57.8103 41.8147 54.3125 37.5 54.3125Z" fill="#2B86D1" fill-opacity="0.5"/>
<path fill-rule="evenodd" clip-rule="evenodd" d="M91.8125 62.125H62.125V91.8125H91.8125V62.125ZM62.125 54.3125C57.8103 54.3125 54.3125 57.8103 54.3125 62.125V91.8125C54.3125 96.1273 57.8103 99.625 62.125 99.625H91.8125C96.1273 99.625 99.625 96.1273 99.625 91.8125V62.125C99.625 57.8103 96.1273 54.3125 91.8125 54.3125H62.125Z" fill="#2B86D1" fill-opacity="0.5"/>
</g>
<defs>
<clipPath id="clip0">
<rect width="100" height="100" fill="white"/>
</clipPath>
</defs>
</svg>
