<svg width="98" height="100" viewBox="0 0 98 100" fill="none" xmlns="http://www.w3.org/2000/svg">
<g clip-path="url(#clip0)">
<rect width="98" height="100" fill="white"/>
<g clip-path="url(#clip1)">
<path fill-rule="evenodd" clip-rule="evenodd" d="M13.7188 1.79601C14.4445 0.676056 15.6881 0 17.0227 0H79.5465C80.8606 0 82.089 0.656351 82.8197 1.74954L96.3851 22.0498C97.2504 23.3447 97.7126 24.8672 97.7126 26.4246V96.063C97.7126 98.237 95.9496 100 93.7756 100H3.22442C1.05008 100 -0.712585 98.237 -0.712585 96.063V26.3944C-0.712585 24.8748 -0.27287 23.3876 0.553517 22.1124L13.7188 1.79601ZM13.0857 17.2521V59.2674L7.16143 74.7532V26.3943L13.0857 17.2521ZM8.94584 92.126H87.9898L76.867 63.9318H19.7318L8.94584 92.126ZM20.9597 56.0578H75.6091V7.87402H20.9597V56.0578ZM83.4835 16.9143L89.8386 26.4246V75.3557L83.4835 59.2463V16.9143Z" fill="#2B86D1" fill-opacity="0.5"/>
<path d="M60.2231 41.8921C60.4757 43.4602 59.2646 44.8819 57.6763 44.8819C56.3807 44.8819 55.2861 43.9209 55.1184 42.6362L54.9869 41.6287C54.7439 39.7677 53.1583 38.3756 51.2815 38.3756H45.4534C44.1326 38.3756 42.8998 39.0379 42.1706 40.1392L39.7459 43.8016C39.2993 44.4762 38.5441 44.8819 37.735 44.8819C35.7924 44.8819 34.647 42.7022 35.749 41.1023L49.8698 20.6013C50.6046 19.5347 51.8371 18.8976 53.1323 18.8976C55.065 18.8976 56.7445 20.3004 57.0519 22.2084L60.2231 41.8921ZM48.3712 30.831C47.0747 32.7805 48.4724 35.3884 50.8136 35.3884C52.5783 35.3884 53.9435 33.8413 53.724 32.0903C53.3858 29.3925 49.8768 28.5669 48.3712 30.831Z" fill="#2B86D1" fill-opacity="0.5"/>
</g>
</g>
<defs>
<clipPath id="clip0">
<rect width="98" height="100" fill="white"/>
</clipPath>
<clipPath id="clip1">
<rect width="125" height="100" fill="white" transform="translate(-14)"/>
</clipPath>
</defs>
</svg>
